<svg width="17" height="18" viewBox="0 0 17 18" fill="none" xmlns="http://www.w3.org/2000/svg">
<path d="M2.64216 15.2771H12.5383L12.0657 13.7467C12.1358 13.8078 16.1202 17.2231 16.1202 17.2231V2.28413C16.073 1.35552 15.2735 0.566406 14.2824 0.566406L2.64563 0.568488C1.65525 0.568488 0.851562 1.35899 0.851562 2.2876V13.5586C0.851562 14.5379 1.65386 15.2771 2.64216 15.2771ZM9.96279 4.51058L9.93988 4.51891L9.94821 4.51058H9.96279ZM4.66664 5.3913C5.9388 4.46547 7.11796 4.50988 7.11796 4.50988L7.21304 4.60358C5.65633 4.97488 4.9505 5.6703 4.9505 5.6703C5.02268 5.65503 8.16594 3.84153 11.9748 5.71611C11.9748 5.71611 11.2676 5.0658 9.80663 4.64938L9.93572 4.52238C10.1377 4.52307 11.2065 4.56055 12.3503 5.39685C12.3503 5.39685 13.63 7.58305 13.63 10.2689C13.5877 10.2176 12.8361 11.4252 10.9018 11.4668C10.9018 11.4668 10.5742 11.0962 10.341 10.7728C11.4723 10.448 11.8957 9.79839 11.8957 9.79839C9.6935 11.1851 7.76341 10.9685 5.45437 10.0316C5.43285 10.0316 5.42314 10.0219 5.41203 10.0108V10.0066C5.40093 9.99619 5.39121 9.98578 5.3697 9.98578H5.32805C5.18647 9.89278 5.09208 9.84697 5.09208 9.84697C5.09208 9.84697 5.51475 10.4966 6.60091 10.8214C6.31566 11.1469 6.03319 11.5168 6.03319 11.5168C4.09962 11.471 3.39449 10.2634 3.39449 10.2634C3.39449 7.57333 4.66664 5.3913 4.66664 5.3913Z" fill="white"/>
<path d="M10.0867 9.43075C10.5802 9.43075 10.982 9.01433 10.982 8.50075C10.982 7.99064 10.5822 7.57422 10.0867 7.57422V7.5763C9.59533 7.5763 9.19279 7.99133 9.19141 8.50491C9.19141 9.01433 9.59325 9.43075 10.0867 9.43075Z" fill="white"/>
<path d="M6.88358 9.43075C7.37704 9.43075 7.77888 9.01433 7.77888 8.50075C7.77888 7.99064 7.37981 7.57422 6.88636 7.57422L6.88358 7.5763C6.39012 7.5763 5.98828 7.99133 5.98828 8.50491C5.98828 9.01433 6.39012 9.43075 6.88358 9.43075Z" fill="white"/>
</svg>
