<svg width="16" height="16" viewBox="0 0 16 16" fill="none" xmlns="http://www.w3.org/2000/svg">
<g clip-path="url(#clip0_1623_1307)">
<path d="M15.5812 8.20074C15.5812 3.98396 12.1636 0.566406 7.94683 0.566406C3.73006 0.566406 0.3125 3.98396 0.3125 8.20074C0.3125 12.4175 3.73006 15.8351 7.94683 15.8351C7.99156 15.8351 8.03629 15.8351 8.08103 15.8321V9.89162H6.44084V7.98006H8.08103V6.57248C8.08103 4.94123 9.07707 4.05255 10.5324 4.05255C11.2302 4.05255 11.8296 4.10325 12.0026 4.1271V5.8329H11.0006C10.2103 5.8329 10.0552 6.20865 10.0552 6.76035V7.97707H11.9489L11.7014 9.88864H10.0552V15.5398C13.2461 14.6243 15.5812 11.6869 15.5812 8.20074Z" fill="white"/>
</g>
<defs>
<clipPath id="clip0_1623_1307">
<rect width="15.2687" height="15.2687" fill="white" transform="translate(0.3125 0.566406)"/>
</clipPath>
</defs>
</svg>
