<svg width="17" height="16" viewBox="0 0 17 16" fill="none" xmlns="http://www.w3.org/2000/svg">
<path d="M16.0785 5.05545C16.0427 4.24416 15.9115 3.68641 15.7236 3.20311C15.5297 2.6901 15.2315 2.2308 14.8407 1.84899C14.4589 1.46123 13.9965 1.15993 13.4895 0.969078C13.0034 0.781141 12.4485 0.649947 11.6372 0.614177C10.8199 0.575378 10.5604 0.566406 8.48741 0.566406C6.41439 0.566406 6.15492 0.575378 5.3406 0.611148C4.52932 0.646917 3.97157 0.778228 3.48838 0.966048C2.97526 1.15993 2.51596 1.4582 2.13415 1.84899C1.74639 2.2308 1.4452 2.69313 1.25423 3.2002C1.0663 3.68641 0.935103 4.24113 0.899333 5.05242C0.860534 5.86976 0.851562 6.12924 0.851562 8.20225C0.851562 10.2753 0.860534 10.5347 0.896304 11.3491C0.932073 12.1603 1.06338 12.7181 1.25132 13.2014C1.4452 13.7144 1.74639 14.1737 2.13415 14.5555C2.51596 14.9433 2.97829 15.2446 3.48536 15.4354C3.97157 15.6234 4.52629 15.7546 5.33769 15.7903C6.15189 15.8262 6.41148 15.8351 8.48449 15.8351C10.5575 15.8351 10.817 15.8262 11.6313 15.7903C12.4426 15.7546 13.0003 15.6234 13.4835 15.4354C14.5097 15.0387 15.3209 14.2274 15.7177 13.2014C15.9055 12.7152 16.0368 12.1603 16.0726 11.3491C16.1083 10.5347 16.1173 10.2753 16.1173 8.20225C16.1173 6.12924 16.1143 5.86976 16.0785 5.05545ZM14.7035 11.2894C14.6707 12.0351 14.5454 12.4378 14.441 12.7062C14.1845 13.3714 13.6565 13.8993 12.9914 14.1559C12.7229 14.2603 12.3173 14.3855 11.5746 14.4183C10.7692 14.4541 10.5277 14.463 8.49044 14.463C6.45319 14.463 6.20863 14.4541 5.4062 14.4183C4.66051 14.3855 4.25784 14.2603 3.98939 14.1559C3.65838 14.0335 3.35707 13.8397 3.11251 13.5861C2.85898 13.3385 2.6651 13.0402 2.54276 12.7092C2.43836 12.4408 2.31311 12.0351 2.28037 11.2924C2.24448 10.4871 2.23563 10.2454 2.23563 8.20819C2.23563 6.17095 2.24448 5.92639 2.28037 5.12407C2.31311 4.37839 2.43836 3.97571 2.54276 3.70727C2.6651 3.37613 2.85898 3.07495 3.11554 2.83027C3.36302 2.57673 3.66129 2.38286 3.99242 2.26063C4.26087 2.15624 4.66657 2.03098 5.40923 1.99813C6.21457 1.96236 6.45622 1.95339 8.49335 1.95339C10.5336 1.95339 10.7752 1.96236 11.5776 1.99813C12.3233 2.03098 12.7259 2.15624 12.9944 2.26063C13.3254 2.38286 13.6267 2.57673 13.8713 2.83027C14.1248 3.07786 14.3187 3.37613 14.441 3.70727C14.5454 3.97571 14.6707 4.3813 14.7035 5.12407C14.7393 5.92942 14.7483 6.17095 14.7483 8.20819C14.7483 10.2454 14.7393 10.4841 14.7035 11.2894Z" fill="white"/>
<path d="M8.48872 4.2793C6.32332 4.2793 4.56641 6.03609 4.56641 8.20161C4.56641 10.3671 6.32332 12.1239 8.48872 12.1239C10.6542 12.1239 12.411 10.3671 12.411 8.20161C12.411 6.03609 10.6542 4.2793 8.48872 4.2793ZM8.48872 10.7459C7.08392 10.7459 5.94441 9.60654 5.94441 8.20161C5.94441 6.79669 7.08392 5.6573 8.48872 5.6573C9.89365 5.6573 11.033 6.79669 11.033 8.20161C11.033 9.60654 9.89365 10.7459 8.48872 10.7459Z" fill="white"/>
<path d="M13.4799 4.12467C13.4799 4.63034 13.0699 5.04035 12.5641 5.04035C12.0584 5.04035 11.6484 4.63034 11.6484 4.12467C11.6484 3.61888 12.0584 3.20898 12.5641 3.20898C13.0699 3.20898 13.4799 3.61888 13.4799 4.12467Z" fill="white"/>
</svg>
